<svg width="512" height="512" viewBox="0 0 512 512" fill="none" xmlns="http://www.w3.org/2000/svg">
  <rect width="512" height="512" rx="128" fill="#000000"/>
  <path d="M256 80C154.8 80 80 154.8 80 256s74.8 176 176 176 176-74.8 176-176S357.2 80 256 80zm0 304c-70.692 0-128-57.308-128-128S185.308 128 256 128s128 57.308 128 128-57.308 128-128 128z" fill="white"/>
  <circle cx="256" cy="256" r="64" fill="white"/>
  <path d="M256 200c-30.9 0-56 25.1-56 56s25.1 56 56 56 56-25.1 56-56-25.1-56-56-56z" fill="#000000"/>
</svg>